<svg width="777" height="55" viewBox="0 0 777 55" fill="none" xmlns="http://www.w3.org/2000/svg">
<path d="M551.637 10.8408H470.431C468.526 10.8411 467.837 12.6713 467.837 14.2773V40.6113C467.837 42.2171 468.833 43.2791 470.431 43.2793H551.637V54.1162H470.431C461.578 54.116 455.557 48.0105 455.557 39.0791V15.8828C455.557 5.65682 459.902 0.00794347 470.431 0.0078125L551.637 0.00390625V10.8408ZM88.6094 0.00390625C97.0802 0.00390625 100.745 8.09338 100.745 15.5723V21.8311C100.745 31.2936 95.0963 38.166 85.252 38.166H12.3682V54.1123H0V0.00390625H88.6094ZM200.037 0C208.354 0 214.385 5.11342 214.385 13.6631V40.4531C214.385 49.0069 208.354 54.1123 200.037 54.1123H127.76C119.443 54.1123 113.412 49.0069 113.412 40.4531V13.6631C113.412 5.11342 119.443 0 127.76 0H200.037ZM316.728 0.00390625C323.061 0.00390625 328.863 4.2003 328.863 10.8408V24.8857C328.863 30.7623 324.282 33.8877 319.094 35.2656C326.572 38.7769 328.1 46.5588 328.863 54.1123H316.728C316.192 45.9487 312.681 38.1662 303.298 38.166H240.104V54.1123H227.741V0.00390625H316.728ZM440.818 10.8408H358.551C355.268 10.8408 353.895 13.2066 353.895 16.3359C353.895 19.3116 355.422 21.6025 358.551 21.6025H425.637C436.627 21.6026 442.578 26.8696 442.578 38.0879C442.578 47.4757 437.544 54.1122 427.778 54.1123H343.443V43.2754H425.641C428.463 43.2754 429.688 40.8347 429.688 38.3154C429.687 35.4228 429.081 32.3643 425.641 32.3643H355.957C346.951 32.3643 341.763 25.4203 341.763 16.7959C341.763 6.03444 347.561 0.00786826 358.555 0.0078125L440.818 0.00390625V10.8408ZM577.355 21.0674H649.177V0.00390625H661.919V54.1123H649.177V31.9033H577.355V54.1123H564.913V0.00390625H577.355V21.0674ZM776.476 10.8408H687.331V21.2998H776.476V32.0566H687.331V43.2754H776.476V54.1123H674.972V0.00390625H776.476V10.8408ZM132.952 10.8408C129.059 10.8408 125.93 12.5216 125.93 16.8711V37.2451C125.93 41.5985 129.134 43.2754 132.952 43.2754H195.688C199.502 43.2754 202.632 41.5984 202.632 37.2451V16.8711C202.632 12.5216 199.581 10.8409 195.688 10.8408H132.952ZM13 27.4854H83.5186C86.573 27.4852 89.2412 26.2645 89.2412 22.8281V16.7275C89.2412 13.1418 87.1042 11.0041 83.5186 11.0039L13 11V27.4854ZM240.105 10.8408V27.3252H313.679C316.119 27.3249 316.729 25.2625 316.729 23.2041V15.875C316.729 12.3638 315.434 10.8369 311.844 10.8369L240.105 10.8408Z" fill="white"/>
</svg>
